<?xml version="1.0" encoding="UTF-8"?> <svg xmlns="http://www.w3.org/2000/svg" width="101" height="72" viewBox="0 0 101 72" fill="none"><g clip-path="url(#clip0_78_461)"><path d="M70.857 28.536L99.3895 0L75.8387 0.0250099L55.9227 19.9405C55.6669 19.1244 55.3741 18.3215 55.0443 17.5317C53.6412 14.1447 51.603 11.0562 49.0392 8.43218C46.4788 5.83607 43.4461 3.75072 40.1035 2.28772C36.6503 0.772285 32.9167 -0.00219093 29.1444 0.0144793C25.3806 -0.00465606 21.6553 0.770942 18.2131 2.29035C14.8898 3.75484 11.8791 5.84254 9.3446 8.44008C6.80017 11.069 4.77579 14.1535 3.37774 17.5317C1.91134 21.0614 1.16607 24.8479 1.18567 28.6689C1.16323 32.4809 1.90915 36.2586 3.37906 39.7771C4.78423 43.1399 6.80757 46.2106 9.3446 48.8306C11.879 51.4286 14.8896 53.5168 18.2131 54.9816C21.6552 56.5011 25.3807 57.2763 29.1444 57.2562C32.9165 57.2731 36.6502 56.4991 40.1035 54.9843C43.4465 53.5212 46.4792 51.4354 49.0392 48.8385C51.5976 46.2246 53.6354 43.1497 55.0443 39.7771C55.3846 38.9742 55.6845 38.155 55.9439 37.3196L58.9906 40.3523L59.0697 40.2747L76.1275 57.2667L99.6784 57.2417L70.857 28.536ZM29.1444 42.2807C27.3782 42.2938 25.629 41.935 24.0111 41.2277C20.7915 39.8059 18.2399 37.2071 16.881 33.9657C16.1841 32.2871 15.8329 30.4858 15.8483 28.6689C15.836 26.8379 16.1883 25.0226 16.8849 23.3287C17.5548 21.7057 18.5319 20.2268 19.7629 18.9731C20.9806 17.7361 22.4221 16.7405 24.0111 16.0391C25.6288 15.3311 27.3781 14.9723 29.1444 14.986C30.9382 14.9751 32.7149 15.3335 34.3635 16.0391C35.9596 16.7224 37.405 17.7132 38.617 18.9546C39.8358 20.2204 40.8042 21.7044 41.4712 23.3287C42.1678 25.0226 42.5202 26.8379 42.5079 28.6689C42.5256 30.4858 42.1766 32.2876 41.4817 33.967C40.808 35.5794 39.8392 37.0525 38.6249 38.3108C37.4095 39.553 35.9599 40.543 34.3595 41.2237C32.7106 41.9297 30.9334 42.2882 29.1392 42.2768" fill="#FFCB1F"></path><path d="M4.02394 72C3.48483 72.0037 2.95025 71.9017 2.45049 71.6999C1.97184 71.5074 1.5368 71.2209 1.17115 70.8575C0.807068 70.4881 0.517387 70.0524 0.317815 69.5741C0.102601 69.0648 -0.00558411 68.5169 -4.14477e-05 67.9642V67.9419C-0.00443899 67.3972 0.101432 66.8572 0.311221 66.3544C0.512243 65.8721 0.804169 65.4329 1.17115 65.0605C1.54236 64.689 1.9846 64.3958 2.47159 64.1983C2.99449 63.9861 3.55443 63.8796 4.1189 63.885C4.48712 63.8816 4.85448 63.9209 5.2136 64.0022C5.52614 64.0746 5.82802 64.187 6.11177 64.3365C6.37816 64.4782 6.62582 64.6524 6.84904 64.8551C7.06622 65.054 7.26244 65.2745 7.43463 65.5133L5.80447 66.773C5.60086 66.5083 5.35165 66.2818 5.06852 66.1043C4.77362 65.9341 4.437 65.8493 4.09648 65.8595C3.83654 65.8557 3.5791 65.9106 3.34339 66.0201C3.11944 66.1246 2.91961 66.2743 2.75647 66.4597C2.58862 66.6536 2.45806 66.8767 2.37135 67.1179C2.27774 67.3752 2.23041 67.647 2.23155 67.9208V67.9432C2.23009 68.2221 2.2774 68.4992 2.37135 68.7619C2.45784 69.0032 2.58842 69.2263 2.75647 69.4201C2.91997 69.6051 3.11971 69.7547 3.34339 69.8597C3.579 69.9696 3.83644 70.0249 4.09648 70.0216C4.28284 70.0235 4.46864 70.0009 4.6491 69.9545C4.81052 69.9126 4.96478 69.847 5.10676 69.7597C5.24866 69.673 5.38125 69.572 5.50244 69.4582C5.63086 69.3374 5.75198 69.2091 5.86514 69.0739L7.4953 70.2335C7.31152 70.483 7.10821 70.7176 6.88729 70.9351C6.66304 71.1561 6.40968 71.3457 6.13419 71.4985C5.83903 71.6613 5.52376 71.7847 5.19645 71.8657C4.81451 71.9586 4.4223 72.0029 4.02922 71.9974" fill="#221F20"></path><path d="M12.572 72C11.998 72.0045 11.4288 71.8958 10.897 71.6801C10.4007 71.4824 9.94775 71.19 9.56358 70.8193C9.19025 70.4534 8.89268 70.0178 8.68783 69.5372C8.47677 69.0408 8.37079 68.5061 8.37657 67.9669V67.9445C8.37305 67.4017 8.4817 66.864 8.69574 66.3649C8.90213 65.8792 9.20394 65.4397 9.58337 65.0723C9.97008 64.6997 10.425 64.4047 10.9234 64.2036C11.4549 63.9893 12.0238 63.8823 12.5971 63.889C13.1709 63.8832 13.7402 63.991 14.2721 64.2062C14.7673 64.405 15.2189 64.6983 15.6015 65.0697C15.9746 65.4354 16.2721 65.8705 16.4773 66.3505C16.6905 66.8469 16.7987 67.382 16.7951 67.9221V67.9445C16.7987 68.4872 16.6905 69.0248 16.4773 69.5241C16.2709 70.0098 15.9691 70.4493 15.5897 70.8167C15.2009 71.1873 14.7447 71.4804 14.2457 71.6801C13.7142 71.8949 13.1454 72.0027 12.572 71.9974V72ZM12.5878 70.0479C12.8693 70.0518 13.1483 69.9948 13.4056 69.8808C13.6435 69.7752 13.8568 69.6215 14.032 69.4293C14.2062 69.2367 14.343 69.0135 14.4356 68.7711C14.5329 68.5146 14.5821 68.2424 14.5807 67.9682V67.9458C14.5821 67.6716 14.5329 67.3994 14.4356 67.1429C14.3409 66.896 14.2004 66.6692 14.0215 66.4742C13.8425 66.2803 13.6275 66.123 13.3884 66.0109C13.1321 65.8933 12.8527 65.8344 12.5707 65.8384C12.2913 65.8342 12.0144 65.8912 11.7596 66.0056C11.5227 66.113 11.3093 66.266 11.1318 66.4558C10.9554 66.6465 10.8187 66.8702 10.7295 67.1139C10.6353 67.3711 10.5879 67.643 10.5897 67.9169V67.9392C10.5878 68.2131 10.637 68.4849 10.7348 68.7409C10.8278 68.9878 10.9665 69.215 11.1436 69.4109C11.3214 69.6049 11.5362 69.7615 11.7754 69.8716C12.0316 69.9894 12.311 70.0488 12.5931 70.0453" fill="#221F20"></path><path d="M18.1433 64.0443H20.1678L23.3912 68.1669V64.0443H25.5226V71.8447H23.6207L20.276 67.5654V71.8447H18.1433V64.0443Z" fill="#221F20"></path><path d="M30.2008 71.9776C29.523 71.9813 28.8493 71.8714 28.2079 71.6525C27.5911 71.4432 27.0231 71.1114 26.5382 70.6771L27.745 69.2371C28.4542 69.8347 29.3505 70.1658 30.2786 70.173C30.507 70.1858 30.7346 70.1377 30.9381 70.0335C31.0087 69.9949 31.0674 69.9376 31.1076 69.8679C31.1479 69.7983 31.1682 69.7189 31.1663 69.6386V69.6175C31.1678 69.5414 31.1487 69.4664 31.1109 69.4003C31.0587 69.3228 30.988 69.2595 30.9051 69.216C30.7796 69.1453 30.647 69.088 30.5094 69.0449C30.2928 68.9755 30.0727 68.9175 29.85 68.8712C29.4332 68.7746 29.0459 68.6689 28.688 68.5539C28.3605 68.4507 28.0495 68.3008 27.7648 68.109C27.4874 67.9272 27.2625 67.6759 27.1128 67.3803C26.9631 67.0846 26.8937 66.755 26.9115 66.4242V66.4018C26.9076 66.0575 26.9777 65.7164 27.1172 65.4014C27.2563 65.0964 27.4623 64.8265 27.7199 64.6116C28.0024 64.3795 28.3271 64.2038 28.6762 64.0943C29.0839 63.9663 29.5096 63.9041 29.937 63.9101C30.5424 63.9024 31.145 63.9926 31.7215 64.1773C32.2391 64.3493 32.7212 64.6133 33.1446 64.9565L32.0618 66.4874C31.7242 66.2451 31.3538 66.0519 30.9618 65.9135C30.6127 65.7877 30.2449 65.7214 29.8737 65.7173C29.6675 65.7027 29.462 65.7538 29.2868 65.8634C29.2274 65.902 29.1784 65.9546 29.1444 66.0166C29.1103 66.0786 29.0922 66.1481 29.0916 66.2188V66.2412C29.09 66.3231 29.1115 66.4039 29.1536 66.4742C29.207 66.5531 29.2802 66.6166 29.3659 66.6585C29.4981 66.7268 29.6363 66.7827 29.7788 66.8257C29.9546 66.8809 30.1744 66.9384 30.4382 66.9981C30.8487 67.0845 31.2532 67.1975 31.649 67.3364C31.9776 67.4495 32.2884 67.6086 32.5722 67.8089C32.8167 67.9846 33.016 68.2155 33.1538 68.4829C33.2938 68.7756 33.3625 69.0972 33.3543 69.4214V69.4424C33.3613 69.8112 33.2828 70.1765 33.1248 70.51C32.9729 70.8177 32.7539 71.0875 32.4838 71.2997C32.1878 71.529 31.8501 71.6988 31.4894 71.7999C31.0684 71.92 30.632 71.9781 30.1942 71.9724" fill="#221F20"></path><path d="M36.5436 65.9385H34.1986V64.0443H41.0543V65.9385H38.7093V71.8447H36.5436V65.9385Z" fill="#221F20"></path><path d="M42.2257 64.0456H45.9186C46.4375 64.0334 46.9548 64.1086 47.4486 64.2681C47.8307 64.3952 48.1783 64.6087 48.4641 64.892C48.9258 65.3378 49.1566 65.9433 49.1566 66.7085V66.7309C49.1773 67.2628 49.0246 67.787 48.7213 68.2249C48.4201 68.6264 48.0146 68.9382 47.5488 69.1265L49.4138 71.846H46.9078L45.341 69.4819H44.3914V71.8447H42.2257V64.0456ZM45.821 67.7892C46.193 67.7892 46.4805 67.7062 46.681 67.5391C46.7797 67.4574 46.8584 67.3541 46.9107 67.2372C46.9631 67.1204 46.9878 66.9931 46.983 66.8651V66.8428C46.9923 66.7097 46.9686 66.5763 46.9138 66.4546C46.859 66.3329 46.775 66.2266 46.6691 66.1451C46.4144 65.9802 46.1137 65.9005 45.8105 65.9174H44.3914V67.7892H45.821Z" fill="#221F20"></path><path d="M53.9944 71.9895C53.484 71.9963 52.9756 71.9248 52.4869 71.7776C52.0626 71.6492 51.673 71.4264 51.3474 71.126C51.0238 70.8152 50.7773 70.4335 50.6272 70.0111C50.4499 69.501 50.3651 68.9635 50.3767 68.4237V64.0457H52.5871V68.3802C52.5871 68.9445 52.7164 69.3622 52.9749 69.6333C53.1099 69.7704 53.2724 69.8774 53.4517 69.9475C53.631 70.0176 53.8232 70.0491 54.0155 70.0401C54.207 70.0491 54.3984 70.0187 54.5776 69.9507C54.7569 69.8828 54.9202 69.7788 55.0575 69.6452C55.316 69.3819 55.4452 68.9769 55.4452 68.4302V64.0457H57.6557V68.3684C57.6682 68.9244 57.5788 69.478 57.3919 70.0019C57.2369 70.4287 56.985 70.8139 56.656 71.1273C56.3262 71.4276 55.9332 71.6503 55.5059 71.7789C55.0153 71.9257 54.5052 71.9971 53.9931 71.9908" fill="#221F20"></path><path d="M62.9263 72C62.3868 72.0035 61.8518 71.9016 61.3515 71.6999C60.8735 71.507 60.4389 71.2206 60.0735 70.8575C59.6946 70.4768 59.3954 70.0248 59.1932 69.5276C58.991 69.0305 58.8899 68.4981 58.8957 67.9616V67.9392C58.8902 66.862 59.3116 65.8262 60.0683 65.0579C60.439 64.6859 60.8814 64.3926 61.3687 64.1957C61.8916 63.9833 62.4515 63.8768 63.016 63.8824C63.3838 63.8789 63.7507 63.9182 64.1094 63.9996C64.4224 64.072 64.7247 64.1844 65.0089 64.3339C65.2753 64.4756 65.5229 64.6498 65.7461 64.8525C65.9633 65.0514 66.1595 65.2719 66.3317 65.5107L64.7016 66.7704C64.4975 66.5056 64.2478 66.2792 63.9643 66.1017C63.6699 65.9314 63.3337 65.8467 62.9936 65.8569C62.7331 65.8535 62.4752 65.9089 62.2392 66.0188C62.0156 66.1233 61.8162 66.273 61.6536 66.4584C61.4853 66.6519 61.3546 66.8751 61.2685 67.1166C61.1742 67.3737 61.1269 67.6457 61.1287 67.9195V67.9419C61.1266 68.2209 61.1739 68.498 61.2685 68.7606C61.3544 69.0021 61.4851 69.2254 61.6536 69.4188C61.8166 69.6037 62.0159 69.7534 62.2392 69.8584C62.4752 69.9683 62.7331 70.0237 62.9936 70.0203C63.1799 70.0221 63.3657 69.9995 63.5462 69.9532C63.7075 69.9111 63.8618 69.8454 64.0039 69.7584C64.1456 69.6714 64.2781 69.5704 64.3995 69.4569C64.528 69.3361 64.6491 69.2078 64.7622 69.0726L66.3924 70.2322C66.2086 70.4818 66.0053 70.7163 65.7844 70.9338C65.5614 71.1522 65.3099 71.3395 65.0366 71.4906C64.741 71.6536 64.4253 71.7771 64.0975 71.8579C63.716 71.9507 63.3242 71.9949 62.9316 71.9895" fill="#221F20"></path><path d="M69.4471 65.9385H67.1021V64.0443H73.9577V65.9385H71.6127V71.8447H69.4471V65.9385Z" fill="#221F20"></path><path d="M79.0595 72C78.4857 72.005 77.9165 71.8973 77.3845 71.6828C76.8899 71.4835 76.4388 71.1902 76.0563 70.8193C75.6826 70.4534 75.3846 70.0178 75.1792 69.5372C74.9665 69.0411 74.8583 68.5065 74.8614 67.9669V67.9445C74.8584 67.4097 74.9637 66.8798 75.1711 66.3867C75.3785 65.8936 75.6836 65.4474 76.0682 65.075C76.4547 64.702 76.9097 64.407 77.4082 64.2062C78.4842 63.7832 79.6809 63.7832 80.7569 64.2062C81.2521 64.405 81.7037 64.6983 82.0864 65.0697C82.4594 65.4354 82.7569 65.8705 82.9621 66.3505C83.1754 66.8469 83.2836 67.382 83.28 67.9221V67.9445C83.2828 68.4791 83.1775 69.0088 82.9703 69.5019C82.7632 69.995 82.4585 70.4412 82.0745 70.814C81.6873 71.1861 81.2325 71.481 80.7345 71.6828C80.2025 71.8974 79.6333 72.0052 79.0595 72ZM79.0766 70.0506C79.3581 70.0543 79.637 69.9972 79.8943 69.8834C80.1323 69.7779 80.3456 69.6241 80.5208 69.4319C80.6945 69.239 80.8313 69.0159 80.9244 68.7738C81.0217 68.5172 81.0708 68.2451 81.0695 67.9708V67.9484C81.0708 67.6742 81.0217 67.402 80.9244 67.1455C80.8297 66.8983 80.6887 66.6714 80.509 66.4768C80.329 66.2826 80.1126 66.1256 79.8719 66.0148C79.6151 65.9029 79.3378 65.8451 79.0575 65.8451C78.7772 65.8451 78.4999 65.9029 78.2431 66.0148C78.005 66.1214 77.7909 66.2751 77.6139 66.4664C77.4369 66.6578 77.3005 66.883 77.213 67.1284C77.1183 67.3855 77.0705 67.6574 77.0719 67.9313V67.9537C77.0705 68.2277 77.1201 68.4995 77.2183 68.7553C77.3108 68.9983 77.4471 69.2222 77.6205 69.4161C77.7988 69.6101 78.014 69.7667 78.2536 69.8768C78.5099 69.9947 78.7892 70.054 79.0713 70.0506" fill="#221F20"></path><path d="M84.6307 64.0456H88.3237C88.8421 64.0334 89.3589 64.1086 89.8523 64.2681C90.2347 64.3955 90.5826 64.609 90.8692 64.892C91.3299 65.3378 91.5603 65.9433 91.5603 66.7085V66.7309C91.581 67.2628 91.4283 67.787 91.125 68.2249C90.8238 68.6258 90.4189 68.9375 89.9538 69.1265L91.8175 71.846H89.3115L87.746 69.4819H86.7977V71.8447H84.6307V64.0456ZM88.2261 67.7892C88.598 67.7892 88.8855 67.7062 89.086 67.5391C89.185 67.4576 89.2638 67.3543 89.3162 67.2374C89.3686 67.1205 89.3932 66.9931 89.388 66.8651V66.8428C89.3975 66.7098 89.3739 66.5765 89.3194 66.4548C89.2649 66.3331 89.1811 66.2267 89.0754 66.1451C88.8201 65.9804 88.5191 65.9006 88.2155 65.9174H86.7977V67.7892H88.2261Z" fill="#221F20"></path><path d="M95.5844 63.9877H97.6683L100.996 71.8447H98.6772L98.1075 70.4507H95.0924L94.5345 71.8447H92.2607L95.5844 63.9877ZM97.4823 68.7843L96.6131 66.5624L95.7295 68.7843H97.4823Z" fill="#221F20"></path></g><defs><clipPath id="clip0_78_461"><rect width="101" height="72" fill="white"></rect></clipPath></defs></svg> 